# xmcd
#
# Track frame offsets:
#	150
#	13694
#	26522
#	40046
#	58924
#	72316
#	80457
#	90727
#	102877
#	121226
#	134031
#	147632
#	165507
#	182831
#	203278
#	216096
#	232081
#
# Disc length: 3312 seconds
#
# Revision: 1
# Processed by: cddbd v1.5.2PL0 Copyright (c) Steve Scherf et al.
# Submitted via: audiograbber 1.83.01
#
DISCID=f00cee11
DTITLE=Various Artist - Greatest Ever Country
DYEAR=2006
DGENRE=Country
TTITLE0=Tammy Wynette - Divorce
TTITLE1=Lynn Anderson - Rose Garden
TTITLE2=Loretta Lynn - Coal Miners Daughter
TTITLE3=Kris Kristofferson - Bobby McGee
TTITLE4=Kenny Rogers - Ruby 
TTITLE5=Jerry Lee Lewis - Cheatin Heart
TTITLE6=Everly Brothers - Bird Dog
TTITLE7=Marie Osmond - Paper Roses
TTITLE8=Trisha Yearwood - How Do I Live
TTITLE9=Don Williams - Best Friend
TTITLE10=Faron Young - Four In The Morning
TTITLE11=Lee Greenwood - Wind Beneath My Wings
TTITLE12=Ray Price - Good Times
TTITLE13=Steve Earl - Copperhead Road
TTITLE14=Conway Twitty - Cant Stop Lovin You
TTITLE15=Willie Nelson - Always On My Mind
TTITLE16=Charlie Daniels Band - Devil Went Down To Georgia
EXTD=YEAR: 2006
EXTT0=
EXTT1=
EXTT2=
EXTT3=
EXTT4=
EXTT5=
EXTT6=
EXTT7=
EXTT8=
EXTT9=
EXTT10=
EXTT11=
EXTT12=
EXTT13=
EXTT14=
EXTT15=
EXTT16=
PLAYORDER=
